<mxfile host="app.diagrams.net" modified="2023-06-08T02:04:11.991Z" agent="Mozilla/5.0 (Windows NT 10.0; Win64; x64) AppleWebKit/537.36 (KHTML, like Gecko) Chrome/114.0.0.0 Safari/537.36 Edg/114.0.1823.37" etag="b7n1PkQkMS-lx2tcaLvE" version="21.3.7" type="github">
  <diagram id="C5RBs43oDa-KdzZeNtuy" name="Page-1">
    <mxGraphModel dx="910" dy="547" grid="1" gridSize="10" guides="1" tooltips="1" connect="1" arrows="1" fold="1" page="1" pageScale="1" pageWidth="827" pageHeight="1169" math="0" shadow="0">
      <root>
        <mxCell id="WIyWlLk6GJQsqaUBKTNV-0" />
        <mxCell id="WIyWlLk6GJQsqaUBKTNV-1" parent="WIyWlLk6GJQsqaUBKTNV-0" />
        <mxCell id="Fd6dRY1V7zR3x4quJQAK-2" value="" style="edgeStyle=orthogonalEdgeStyle;rounded=0;orthogonalLoop=1;jettySize=auto;html=1;fillColor=#d80073;strokeColor=#A50040;verticalAlign=middle;fontStyle=1;fontFamily=Times New Roman;" parent="WIyWlLk6GJQsqaUBKTNV-1" source="Fd6dRY1V7zR3x4quJQAK-0" target="Fd6dRY1V7zR3x4quJQAK-1" edge="1">
          <mxGeometry relative="1" as="geometry" />
        </mxCell>
        <mxCell id="Fd6dRY1V7zR3x4quJQAK-0" value="开始" style="strokeWidth=2;html=1;shape=mxgraph.flowchart.start_1;whiteSpace=wrap;align=center;fillColor=#d80073;strokeColor=#A50040;fontColor=#ffffff;verticalAlign=middle;fontStyle=1;fontFamily=Times New Roman;" parent="WIyWlLk6GJQsqaUBKTNV-1" vertex="1">
          <mxGeometry x="330" y="140" width="100" height="60" as="geometry" />
        </mxCell>
        <mxCell id="Fd6dRY1V7zR3x4quJQAK-4" value="" style="edgeStyle=orthogonalEdgeStyle;rounded=0;orthogonalLoop=1;jettySize=auto;html=1;fillColor=#d80073;strokeColor=#A50040;verticalAlign=middle;fontStyle=1;fontFamily=Times New Roman;" parent="WIyWlLk6GJQsqaUBKTNV-1" source="Fd6dRY1V7zR3x4quJQAK-1" target="Fd6dRY1V7zR3x4quJQAK-3" edge="1">
          <mxGeometry relative="1" as="geometry" />
        </mxCell>
        <mxCell id="Fd6dRY1V7zR3x4quJQAK-1" value="导入svm训练相关包" style="whiteSpace=wrap;html=1;strokeWidth=2;fillColor=#d80073;strokeColor=#A50040;fontColor=#ffffff;verticalAlign=middle;fontStyle=1;fontFamily=Times New Roman;" parent="WIyWlLk6GJQsqaUBKTNV-1" vertex="1">
          <mxGeometry x="320" y="240" width="120" height="40" as="geometry" />
        </mxCell>
        <mxCell id="Fd6dRY1V7zR3x4quJQAK-12" value="" style="edgeStyle=orthogonalEdgeStyle;rounded=0;orthogonalLoop=1;jettySize=auto;html=1;fillColor=#d80073;strokeColor=#A50040;verticalAlign=middle;fontStyle=1;fontFamily=Times New Roman;" parent="WIyWlLk6GJQsqaUBKTNV-1" source="Fd6dRY1V7zR3x4quJQAK-3" target="Fd6dRY1V7zR3x4quJQAK-11" edge="1">
          <mxGeometry relative="1" as="geometry" />
        </mxCell>
        <mxCell id="Fd6dRY1V7zR3x4quJQAK-3" value="导入相关训练测试集" style="whiteSpace=wrap;html=1;strokeWidth=2;fillColor=#d80073;strokeColor=#A50040;fontColor=#ffffff;verticalAlign=middle;fontStyle=1;fontFamily=Times New Roman;" parent="WIyWlLk6GJQsqaUBKTNV-1" vertex="1">
          <mxGeometry x="320" y="320" width="120" height="50" as="geometry" />
        </mxCell>
        <mxCell id="Fd6dRY1V7zR3x4quJQAK-9" style="edgeStyle=orthogonalEdgeStyle;rounded=0;orthogonalLoop=1;jettySize=auto;html=1;exitX=0;exitY=1;exitDx=0;exitDy=0;exitPerimeter=0;entryX=1;entryY=0.5;entryDx=0;entryDy=0;fillColor=#d80073;strokeColor=#A50040;verticalAlign=middle;fontStyle=1;fontFamily=Times New Roman;" parent="WIyWlLk6GJQsqaUBKTNV-1" source="Fd6dRY1V7zR3x4quJQAK-5" target="Fd6dRY1V7zR3x4quJQAK-3" edge="1">
          <mxGeometry relative="1" as="geometry" />
        </mxCell>
        <mxCell id="Fd6dRY1V7zR3x4quJQAK-5" value="digits_training.csv" style="verticalLabelPosition=bottom;verticalAlign=middle;html=1;shape=card;whiteSpace=wrap;size=20;arcSize=12;fillColor=#d80073;strokeColor=#A50040;fontColor=#ffffff;fontStyle=1;fontFamily=Times New Roman;" parent="WIyWlLk6GJQsqaUBKTNV-1" vertex="1">
          <mxGeometry x="540" y="150" width="100" height="60" as="geometry" />
        </mxCell>
        <mxCell id="Fd6dRY1V7zR3x4quJQAK-10" style="edgeStyle=orthogonalEdgeStyle;rounded=0;orthogonalLoop=1;jettySize=auto;html=1;exitX=0;exitY=0;exitDx=0;exitDy=40;exitPerimeter=0;entryX=1;entryY=0.5;entryDx=0;entryDy=0;fillColor=#d80073;strokeColor=#A50040;verticalAlign=middle;fontStyle=1;fontFamily=Times New Roman;" parent="WIyWlLk6GJQsqaUBKTNV-1" source="Fd6dRY1V7zR3x4quJQAK-6" target="Fd6dRY1V7zR3x4quJQAK-3" edge="1">
          <mxGeometry relative="1" as="geometry">
            <Array as="points">
              <mxPoint x="540" y="345" />
            </Array>
          </mxGeometry>
        </mxCell>
        <mxCell id="Fd6dRY1V7zR3x4quJQAK-6" value="digits_testing.csv" style="verticalLabelPosition=bottom;verticalAlign=middle;html=1;shape=card;whiteSpace=wrap;size=20;arcSize=12;fillColor=#d80073;strokeColor=#A50040;fontColor=#ffffff;fontStyle=1;fontFamily=Times New Roman;" parent="WIyWlLk6GJQsqaUBKTNV-1" vertex="1">
          <mxGeometry x="540" y="250" width="100" height="60" as="geometry" />
        </mxCell>
        <mxCell id="Fd6dRY1V7zR3x4quJQAK-15" value="" style="edgeStyle=orthogonalEdgeStyle;rounded=0;orthogonalLoop=1;jettySize=auto;html=1;fillColor=#d80073;strokeColor=#A50040;verticalAlign=middle;fontStyle=1;fontFamily=Times New Roman;" parent="WIyWlLk6GJQsqaUBKTNV-1" source="Fd6dRY1V7zR3x4quJQAK-11" target="Fd6dRY1V7zR3x4quJQAK-14" edge="1">
          <mxGeometry relative="1" as="geometry" />
        </mxCell>
        <mxCell id="Fd6dRY1V7zR3x4quJQAK-11" value="&lt;div style=&quot;color: rgb(41, 41, 41); background-color: rgb(255, 255, 255); line-height: 27px;&quot;&gt;&lt;font style=&quot;font-size: 12px;&quot;&gt;(X-X.mean())&lt;span style=&quot;color: rgb(0, 0, 0);&quot;&gt;/&lt;/span&gt;X.max()&lt;/font&gt;&lt;/div&gt;" style="whiteSpace=wrap;html=1;strokeWidth=2;fillColor=#d80073;strokeColor=#A50040;fontColor=#ffffff;verticalAlign=middle;fontStyle=1;fontFamily=Times New Roman;" parent="WIyWlLk6GJQsqaUBKTNV-1" vertex="1">
          <mxGeometry x="320" y="430" width="120" height="35" as="geometry" />
        </mxCell>
        <mxCell id="Fd6dRY1V7zR3x4quJQAK-13" value="特征分类及标准化处理" style="text;html=1;align=center;verticalAlign=middle;resizable=0;points=[];autosize=1;strokeColor=#A50040;fillColor=#d80073;fontColor=#ffffff;fontStyle=1;fontFamily=Times New Roman;" parent="WIyWlLk6GJQsqaUBKTNV-1" vertex="1">
          <mxGeometry x="380" y="390" width="140" height="30" as="geometry" />
        </mxCell>
        <mxCell id="Fd6dRY1V7zR3x4quJQAK-18" value="" style="edgeStyle=orthogonalEdgeStyle;rounded=0;orthogonalLoop=1;jettySize=auto;html=1;fillColor=#d80073;strokeColor=#A50040;verticalAlign=middle;fontStyle=1;fontFamily=Times New Roman;" parent="WIyWlLk6GJQsqaUBKTNV-1" target="Fd6dRY1V7zR3x4quJQAK-17" edge="1">
          <mxGeometry relative="1" as="geometry">
            <mxPoint x="380" y="570" as="sourcePoint" />
          </mxGeometry>
        </mxCell>
        <mxCell id="Fd6dRY1V7zR3x4quJQAK-14" value="svm.fit(xTrain, yTrain)&lt;br&gt;joblib.dump(model)" style="whiteSpace=wrap;html=1;strokeWidth=2;fillColor=#d80073;strokeColor=#A50040;fontColor=#ffffff;verticalAlign=middle;fontStyle=1;fontFamily=Times New Roman;" parent="WIyWlLk6GJQsqaUBKTNV-1" vertex="1">
          <mxGeometry x="320" y="525" width="120" height="60" as="geometry" />
        </mxCell>
        <mxCell id="Fd6dRY1V7zR3x4quJQAK-16" value="训练模型并持久化" style="text;html=1;align=center;verticalAlign=middle;resizable=0;points=[];autosize=1;strokeColor=#A50040;fillColor=#d80073;fontColor=#ffffff;fontStyle=1;fontFamily=Times New Roman;" parent="WIyWlLk6GJQsqaUBKTNV-1" vertex="1">
          <mxGeometry x="390" y="480" width="120" height="30" as="geometry" />
        </mxCell>
        <mxCell id="Fd6dRY1V7zR3x4quJQAK-23" value="" style="edgeStyle=orthogonalEdgeStyle;rounded=0;orthogonalLoop=1;jettySize=auto;html=1;fillColor=#d80073;strokeColor=#A50040;verticalAlign=middle;fontStyle=1;fontFamily=Times New Roman;" parent="WIyWlLk6GJQsqaUBKTNV-1" source="Fd6dRY1V7zR3x4quJQAK-17" target="Fd6dRY1V7zR3x4quJQAK-22" edge="1">
          <mxGeometry relative="1" as="geometry" />
        </mxCell>
        <mxCell id="Fd6dRY1V7zR3x4quJQAK-17" value="model.predict()" style="whiteSpace=wrap;html=1;strokeWidth=2;fillColor=#d80073;strokeColor=#A50040;fontColor=#ffffff;verticalAlign=middle;fontStyle=1;fontFamily=Times New Roman;" parent="WIyWlLk6GJQsqaUBKTNV-1" vertex="1">
          <mxGeometry x="320" y="635" width="120" height="60" as="geometry" />
        </mxCell>
        <mxCell id="Fd6dRY1V7zR3x4quJQAK-19" value="模型预测" style="text;html=1;align=center;verticalAlign=middle;resizable=0;points=[];autosize=1;strokeColor=#A50040;fillColor=#d80073;fontColor=#ffffff;fontStyle=1;fontFamily=Times New Roman;" parent="WIyWlLk6GJQsqaUBKTNV-1" vertex="1">
          <mxGeometry x="395" y="593" width="70" height="30" as="geometry" />
        </mxCell>
        <mxCell id="Fd6dRY1V7zR3x4quJQAK-25" value="" style="edgeStyle=orthogonalEdgeStyle;rounded=0;orthogonalLoop=1;jettySize=auto;html=1;fillColor=#d80073;strokeColor=#A50040;verticalAlign=middle;fontStyle=1;fontFamily=Times New Roman;" parent="WIyWlLk6GJQsqaUBKTNV-1" source="Fd6dRY1V7zR3x4quJQAK-22" target="Fd6dRY1V7zR3x4quJQAK-24" edge="1">
          <mxGeometry relative="1" as="geometry" />
        </mxCell>
        <mxCell id="Fd6dRY1V7zR3x4quJQAK-22" value="评估模型" style="whiteSpace=wrap;html=1;strokeWidth=2;fillColor=#d80073;strokeColor=#A50040;fontColor=#ffffff;verticalAlign=middle;fontStyle=1;fontFamily=Times New Roman;" parent="WIyWlLk6GJQsqaUBKTNV-1" vertex="1">
          <mxGeometry x="320" y="725" width="120" height="60" as="geometry" />
        </mxCell>
        <mxCell id="Fd6dRY1V7zR3x4quJQAK-24" value="结束" style="ellipse;whiteSpace=wrap;html=1;strokeWidth=2;fillColor=#d80073;strokeColor=#A50040;fontColor=#ffffff;verticalAlign=middle;fontStyle=1;fontFamily=Times New Roman;" parent="WIyWlLk6GJQsqaUBKTNV-1" vertex="1">
          <mxGeometry x="325" y="825" width="110" height="60" as="geometry" />
        </mxCell>
      </root>
    </mxGraphModel>
  </diagram>
</mxfile>
